<svg width="11" height="12" viewBox="0 0 22 24" fill="none" xmlns="http://www.w3.org/2000/svg" class="BCYaKw"><path d="M21.4107 22.5H20.4286V1.125C20.4286 0.503672 19.9009 0 19.25 0H2.75C2.09908 0 1.57143 0.503672 1.57143 1.125V22.5H0.589286C0.263853 22.5 0 22.7519 0 23.0625V24H22V23.0625C22 22.7519 21.7361 22.5 21.4107 22.5ZM6.28571 3.5625C6.28571 3.25186 6.54957 3 6.875 3H8.83929C9.16472 3 9.42857 3.25186 9.42857 3.5625V5.4375C9.42857 5.74814 9.16472 6 8.83929 6H6.875C6.54957 6 6.28571 5.74814 6.28571 5.4375V3.5625ZM6.28571 8.0625C6.28571 7.75186 6.54957 7.5 6.875 7.5H8.83929C9.16472 7.5 9.42857 7.75186 9.42857 8.0625V9.9375C9.42857 10.2481 9.16472 10.5 8.83929 10.5H6.875C6.54957 10.5 6.28571 10.2481 6.28571 9.9375V8.0625ZM8.83929 15H6.875C6.54957 15 6.28571 14.7481 6.28571 14.4375V12.5625C6.28571 12.2519 6.54957 12 6.875 12H8.83929C9.16472 12 9.42857 12.2519 9.42857 12.5625V14.4375C9.42857 14.7481 9.16472 15 8.83929 15ZM12.5714 22.5H9.42857V18.5625C9.42857 18.2519 9.69242 18 10.0179 18H11.9821C12.3076 18 12.5714 18.2519 12.5714 18.5625V22.5ZM15.7143 14.4375C15.7143 14.7481 15.4504 15 15.125 15H13.1607C12.8353 15 12.5714 14.7481 12.5714 14.4375V12.5625C12.5714 12.2519 12.8353 12 13.1607 12H15.125C15.4504 12 15.7143 12.2519 15.7143 12.5625V14.4375ZM15.7143 9.9375C15.7143 10.2481 15.4504 10.5 15.125 10.5H13.1607C12.8353 10.5 12.5714 10.2481 12.5714 9.9375V8.0625C12.5714 7.75186 12.8353 7.5 13.1607 7.5H15.125C15.4504 7.5 15.7143 7.75186 15.7143 8.0625V9.9375ZM15.7143 5.4375C15.7143 5.74814 15.4504 6 15.125 6H13.1607C12.8353 6 12.5714 5.74814 12.5714 5.4375V3.5625C12.5714 3.25186 12.8353 3 13.1607 3H15.125C15.4504 3 15.7143 3.25186 15.7143 3.5625V5.4375Z" fill="#9fb1c1"></path></svg>