<svg width="66" height="14" fill="none" xmlns="http://www.w3.org/2000/svg"><path d="M64.269 3.719c-.438-.162-.894-.196-1.35-.196h-3.44a1.18 1.18 0 01-.379-.06c-.194-.067-.27-.212-.27-.458 0-.22.085-.348.279-.416.126-.043.253-.06.388-.06h4.367c.068 0 .118-.017.16-.076.195-.29.388-.57.582-.858.211-.306.422-.612.641-.935H59.54c-.439 0-.877.06-1.29.213-.506.186-.91.484-1.13.994-.194.433-.236.883-.185 1.35.067.587.328 1.054.843 1.368.446.272.944.365 1.458.365h3.567c.101 0 .194.009.295.026.261.042.388.187.405.442.017.272-.093.45-.32.518a1.286 1.286 0 01-.363.042h-4.764c-.068 0-.11.017-.152.077-.388.57-.784 1.138-1.172 1.699-.017.017-.042.034-.025.068h6.045a3.92 3.92 0 001.214-.17c.532-.178.978-.467 1.232-.994.185-.4.244-.824.236-1.257-.034-.841-.414-1.402-1.164-1.682zM37.583 7.747V3.439c0-.067-.017-.084-.084-.084h-3.213c-.042 0-.067.008-.093.042-.379.518-.767 1.028-1.163 1.563h2.479c.067 0 .093.017.093.085-.009.28-.009.56 0 .841 0 .085-.026.102-.11.102h-2.344c-.22 0-.447-.034-.658-.093-1.307-.4-1.45-1.767-.953-2.523.38-.578.936-.825 1.602-.833 1.088-.009 2.176 0 3.255 0a.167.167 0 00.143-.068c.338-.493.675-.977 1.012-1.47.076-.102.144-.212.228-.331H33.13c-.405 0-.81.05-1.197.153-.818.22-1.51.646-2.007 1.35-.49.689-.675 1.453-.616 2.286.068.968.464 1.793 1.198 2.43.742.645 1.627.943 2.597.951 1.467.009 2.925 0 4.393 0 .059 0 .084-.017.084-.093zM40.222 7.345c.691.34 1.433.476 2.192.527.599.043 1.206.043 1.804-.017.582-.06 1.156-.17 1.704-.39.902-.366 1.534-.978 1.804-1.93.236-.815.236-1.647.05-2.471-.151-.671-.48-1.232-1.02-1.657a3.624 3.624 0 00-1.24-.62c-.75-.221-1.525-.289-2.377-.289-.194 0-.472.009-.742.026-.615.05-1.214.152-1.796.365-.986.365-1.67 1.028-1.94 2.073a5.008 5.008 0 00-.024 2.37c.21.918.733 1.597 1.585 2.013zm.346-3.848c.126-.57.497-.867 1.037-1.002.413-.102.834-.12 1.264-.128.236-.017.481-.017.717 0 .48.017.97.034 1.434.187.522.17.792.544.876 1.079.042.263.05.535.034.798-.017.29-.059.587-.21.842-.186.322-.49.5-.835.603-.414.119-.835.136-1.265.144h-.093a3.724 3.724 0 01-.615 0c-.439-.008-.869-.025-1.29-.127-.43-.11-.776-.323-.962-.748a2.109 2.109 0 01-.143-.637 3.15 3.15 0 01.05-1.011zM26.116 4.041c-.22.11-.456.136-.7.136h-5.422c-.084 0-.11.017-.11.11v3.45c0 .085.017.11.102.11h1.787c.085 0 .11-.017.11-.102V6.046c0-.076.025-.093.093-.093h2.858c.067 0 .11.025.152.076.438.586.877 1.164 1.315 1.75.042.051.076.068.144.068h2.47c.025 0 .06.009.101-.017-.674-.781-1.307-1.597-2.049-2.31l.017-.017c.017 0 .025-.009.042-.009.498-.127.894-.4 1.18-.824.43-.646.515-1.35.346-2.09-.151-.705-.615-1.18-1.239-1.495-.59-.298-1.223-.391-1.872-.391-1.391-.008-2.782 0-4.174-.008-.05 0-.084.017-.118.059-.067.11-.143.212-.219.314-.337.493-.683.986-1.037 1.496h5.497c.119 0 .245 0 .363.017.262.034.514.11.675.33.295.383.151.91-.312 1.14zM8.528 7.84h2.276c.06 0 .085-.035.11-.069.902-1.419 1.796-2.837 2.698-4.256.084-.136.177-.28.27-.425.598.977 1.18 1.954 1.787 2.923-.059-.009-.11-.009-.16-.009-.843 0-1.678 0-2.52-.008-.06 0-.085.025-.11.068-.287.45-.582.892-.877 1.342-.093.144-.186.28-.279.433h7.47c-.016-.025-.024-.05-.033-.068-1.332-2.158-2.664-4.299-3.988-6.448a2.855 2.855 0 00-.388-.459c-.43-.416-1.299-.425-1.729 0a2.95 2.95 0 00-.446.527c-1.35 2.115-2.69 4.24-4.04 6.355-.016.025-.05.05-.041.093zM7.27 7.84c.068 0 .118-.017.16-.077.355-.51.7-1.02 1.054-1.53a3.21 3.21 0 01.17-.237h-4.52c-.203 0-.397-.025-.59-.076-1.442-.391-1.577-1.963-.869-2.761.38-.425.877-.612 1.433-.62 1.063-.01 2.117 0 3.18 0 .067 0 .1-.018.143-.069l.893-1.308c.11-.161.22-.314.33-.476C8.61.661 8.568.67 8.534.67h-4.46c-.422 0-.844.06-1.248.179-1.02.297-1.796.9-2.251 1.886-.304.662-.363 1.359-.253 2.064a3.392 3.392 0 001.003 1.954c.767.748 1.712 1.08 2.766 1.088 1.062.008 2.124 0 3.178 0z" fill="#000C37"></path><path d="M48.907 2.454c0 .068.026.085.085.085h5.995c.058 0 .092-.017.126-.068.27-.4.548-.79.818-1.19l.422-.611h-7.345c-.067 0-.092.008-.092.085 0 .57 0 1.13-.009 1.699zM49.017 7.838h5.902c.127 0 .203-.034.278-.144.203-.306.414-.603.624-.9.177-.264.363-.519.548-.8-.033 0-.042-.008-.059-.008h-7.319c-.084 0-.084.034-.084.094v1.648c0 .093.026.11.11.11zM48.907 4.926c0 .068.017.093.084.093h5.784c.06 0 .093-.017.127-.06.228-.33.455-.653.683-.976.135-.187.27-.383.413-.587h-6.981c-.085 0-.119.009-.119.102.017.476.017.952.009 1.428z" fill="#00AEEF"></path><path d="M17.675 9.305h-.556c-.06 0-.093.017-.11.076-.16.586-.329 1.172-.49 1.75-.041.153-.092.315-.134.467a.323.323 0 01-.05-.085l-.608-2.132c-.017-.05-.034-.076-.093-.076h-.548c-.067 0-.067.025-.05.076.05.162.084.323.135.476a.92.92 0 01.008.654c-.126.382-.228.773-.337 1.164h-.017c-.008-.026-.017-.051-.025-.068l-.633-2.217c-.017-.068-.05-.085-.118-.085a6.457 6.457 0 01-.573 0c-.076 0-.101.017-.076.093.068.213.135.433.202.646l.81 2.693c.017.06.042.093.11.085.177-.009.354-.009.522 0 .068 0 .093-.026.11-.085.067-.255.135-.501.202-.756.06-.23.127-.467.194-.705.034.034.042.076.05.11l.38 1.35c.017.06.034.077.093.077h.548c.059 0 .084-.017.101-.076.127-.433.262-.858.388-1.291.21-.689.413-1.377.624-2.065.034-.06.025-.076-.059-.076zM19.413 9.252c-.38.009-.725.102-1.012.357-.573.493-.742 1.121-.632 1.843.118.723.708 1.326 1.39 1.394.423.042.81-.026 1.148-.28.497-.375.742-.893.733-1.513 0-.11-.008-.212-.017-.323-.092-.739-.725-1.486-1.61-1.478zm.565 2.685a.904.904 0 01-1.442-.374c-.185-.459-.143-.91.186-1.292.345-.399.994-.399 1.349.009.202.238.278.467.278.926a.99.99 0 01-.371.73zM7.768 9.305H6.714c-.084 0-.11.025-.11.11V12.72c0 .085.026.11.11.11.396-.008.793.017 1.189-.017a1.47 1.47 0 00.632-.178c.734-.4 1.02-1.113.911-1.878-.11-.866-.801-1.452-1.678-1.452zm.81 2.438a.98.98 0 01-.81.408c-.118.008-.244 0-.362 0-.068 0-.085-.017-.085-.085v-.994-.994c0-.068.017-.094.093-.094.21.009.413-.008.624.034.413.102.733.502.75.926 0 .29-.033.561-.21.799zM28.182 9.305h-1.029c-.101 0-.135.017-.126.127.008.544 0 1.096 0 1.64v1.656c0 .077.025.102.1.102.338-.008.667 0 1.004 0 .177 0 .354-.017.523-.068.894-.271 1.391-1.121 1.189-2.123-.152-.774-.818-1.334-1.661-1.334zm.767 2.48c-.194.247-.455.349-.759.366-.126.008-.253 0-.37 0-.068 0-.093-.026-.093-.094v-.994-.985c0-.077.025-.102.1-.094.195.009.397-.017.59.034.406.102.65.374.743.773.076.349.025.697-.21.994zM23.359 11.58c-.025-.043-.05-.069.017-.103.345-.178.53-.467.581-.85.102-.713-.345-1.316-1.096-1.324-.438-.009-.885 0-1.323 0-.085 0-.118.017-.11.11.008.552 0 1.096 0 1.648v1.657c0 .085.025.11.11.11.16-.008.32-.008.488 0 .085 0 .119-.017.119-.11-.009-.332 0-.663 0-.994 0-.085.017-.12.1-.11.094.008.186.008.27 0 .068 0 .102.016.136.076.202.348.404.697.607 1.053.033.06.076.094.151.094.203-.009.405-.009.608 0 .092 0 .092-.017.05-.094-.244-.399-.48-.781-.708-1.164zm-.447-.587c-.244.051-.49.017-.734.026-.05 0-.05-.034-.05-.068v-.459-.45c0-.043 0-.085.059-.077.227.009.455-.017.683.017.236.034.396.247.404.51a.495.495 0 01-.362.501zM2.819 11.258c-.085-.06-.186-.085-.287-.127.05-.026.093-.043.127-.068a.639.639 0 00.311-.382c.152-.561-.168-1.07-.817-1.105-.405-.025-.818 0-1.223-.008-.067 0-.084.017-.084.085v3.092c0 .076.025.102.1.102h1.021c.152 0 .295-.009.439-.043.227-.05.43-.152.581-.34.169-.212.169-.467.135-.713a.67.67 0 00-.303-.493zm-1.265-1.121c.169 0 .346-.009.514.008a.293.293 0 01.295.29c.017.254-.059.381-.253.424-.185.042-.379.008-.573.017-.05 0-.05-.034-.05-.068v-.306-.297c.008-.051.025-.068.067-.068zm.902 1.741c-.025.272-.16.391-.438.4-.144 0-.287-.009-.439 0-.076 0-.1-.026-.092-.102.008-.11 0-.221 0-.323v-.357c0-.034-.009-.076.05-.068.21 0 .43-.025.64.026.203.05.304.204.28.424zM11.158 9.305h-1.24c-.083 0-.117.017-.117.11.008.552 0 1.096 0 1.648v1.648c0 .085.017.12.11.12.16-.01.32-.01.488 0 .085 0 .102-.026.102-.103v-.926c0-.068.017-.093.092-.093.093.008.186 0 .287 0 .194 0 .388.017.582-.034.65-.153.978-.73.877-1.419-.101-.595-.565-.951-1.18-.951zm.068 1.75c-.228.034-.447.008-.675.017-.059 0-.05-.043-.05-.077v-.475-.476c0-.043-.009-.085.059-.085.219.008.438-.017.657.017.253.042.43.255.439.518.008.323-.228.535-.43.56zM26.598 12.124h-1.299c-.135 0-.135 0-.135-.135V9.406c0-.077-.017-.11-.101-.102a4.862 4.862 0 01-.497 0c-.085 0-.102.025-.102.102V12.719c0 .051-.017.102.068.102h2.082c.06 0 .076-.025.076-.076 0-.17-.008-.349 0-.518.017-.085-.017-.103-.093-.103zM5.373 10.57a3.35 3.35 0 01-.413 0c-.068 0-.101.026-.118.094l-.228.832c-.059.204-.118.417-.185.646-.017-.06-.026-.085-.034-.119-.126-.45-.261-.9-.388-1.35-.017-.069-.05-.094-.126-.094a4.22 4.22 0 01-.464 0c-.084 0-.093.025-.068.093.245.697.481 1.402.717 2.099a.31.31 0 01.009.195c-.068.212-.118.425-.186.637-.025.077-.017.11.076.11.143-.008.287-.008.422 0 .067 0 .1-.025.118-.093l.556-1.733c.127-.408.261-.807.396-1.215.017-.093 0-.11-.084-.102zM43.578 2.428a4.04 4.04 0 00-.717 0c.236-.008.473-.008.717 0z" fill="#000C37"></path><path d="M43.578 2.428c-.236-.008-.48-.008-.717 0h.717zM42.903 6.08c.203.017.413.017.616 0-.21.009-.413.009-.616 0z" fill="#000C37"></path><path d="M43.51 6.08h-.614c.21.009.413.009.615 0z" fill="#000C37"></path></svg>