<svg width="11" height="12" viewBox="0 0 26 24" fill="none" xmlns="http://www.w3.org/2000/svg" class="BCYaKw"><path d="M0.585491 16.5H2.04772C3.03206 21.3157 8.21275 24 13 24C17.7951 24 22.9691 21.3103 23.9523 16.5H25.4145C25.8971 16.5 26.1388 15.8941 25.7975 15.5397L22.7719 12.3978C22.5604 12.1781 22.2174 12.1781 22.0058 12.3978L18.9802 15.5397C18.639 15.8941 18.8806 16.5 19.3632 16.5H20.9497C20.0338 19.0461 17.1145 20.5588 14.4444 20.9069V12H16.7916C17.0908 12 17.3333 11.7481 17.3333 11.4375V9.56248C17.3333 9.25184 17.0908 8.99998 16.7916 8.99998H14.4444V8.74358C16.1272 8.12586 17.3331 6.45959 17.3333 4.50054C17.3336 2.05179 15.4197 0.0345741 13.0618 0.000449092C10.6403 -0.0346603 8.66666 1.99334 8.66666 4.49998C8.66666 6.45926 9.87259 8.12576 11.5556 8.74358V8.99998H9.20833C8.90919 8.99998 8.66666 9.25184 8.66666 9.56248V11.4375C8.66666 11.7481 8.90919 12 9.20833 12H11.5556V20.9069C8.89525 20.5601 5.96645 19.047 5.05027 16.5H6.63672C7.1193 16.5 7.36097 15.8941 7.01972 15.5397L3.99411 12.3978C3.78259 12.1781 3.43962 12.1781 3.22806 12.3978L0.202443 15.5397C-0.138762 15.8941 0.102912 16.5 0.585491 16.5ZM13 2.99998C13.7965 2.99998 14.4444 3.67287 14.4444 4.49998C14.4444 5.32709 13.7965 5.99998 13 5.99998C12.2035 5.99998 11.5556 5.32709 11.5556 4.49998C11.5556 3.67287 12.2035 2.99998 13 2.99998Z" fill="#9fb1c1"></path></svg>