<svg width="10" height="11" fill="none" xmlns="http://www.w3.org/2000/svg"><path d="M10 2.063v5.5c0 1.113-1.376 2.062-2.902 2.062l1.406 1.068c.132.101.058.307-.111.307H1.607c-.169 0-.243-.206-.11-.307l1.405-1.068C1.38 9.625 0 8.679 0 7.562v-5.5C0 .923 1.429 0 2.857 0h4.286C8.593 0 10 .923 10 2.063zM8.929 4.983V2.578a.526.526 0 00-.536-.515H1.607a.526.526 0 00-.536.515v2.406c0 .285.24.516.536.516h6.786c.296 0 .536-.23.536-.516zM5 6.36c-.69 0-1.25.539-1.25 1.204 0 .664.56 1.203 1.25 1.203s1.25-.539 1.25-1.204c0-.664-.56-1.203-1.25-1.203z" fill="url(#rail_svg__paint0_linear_2270_32468)"></path><defs><linearGradient id="rail_svg__paint0_linear_2270_32468" x1="0" y1="11" x2="12.358" y2="4.446" gradientUnits="userSpaceOnUse"><stop stop-color="#FFAB1D"></stop><stop offset="1" stop-color="#F8501C"></stop></linearGradient></defs></svg>